<?xml version="1.0" encoding="UTF-8" standalone="no"?>
<!DOCTYPE svg PUBLIC "-//W3C//DTD SVG 1.1//EN"
 "http://www.w3.org/Graphics/SVG/1.1/DTD/svg11.dtd">
<!-- Generated by graphviz version 2.40.1 (20161225.0304)
 -->
<!-- Title: G Pages: 1 -->
<svg width="472pt" height="501pt"
 viewBox="0.00 0.00 472.00 501.00" xmlns="http://www.w3.org/2000/svg" xmlns:xlink="http://www.w3.org/1999/xlink">
<g id="graph0" class="graph" transform="scale(1 1) rotate(0) translate(4 497)">
<title>G</title>
<polygon fill="#ffffff" stroke="transparent" points="-4,4 -4,-497 468,-497 468,4 -4,4"/>
<text text-anchor="middle" x="232" y="-8.8" font-family="Times,serif" font-size="16.00" fill="#000000">Architecture</text>
<g id="clust1" class="cluster">
<title>cluster_auth</title>
<polygon fill="none" stroke="#0000ff" stroke-dasharray="5,2" points="8,-91.2 8,-411.2 154,-411.2 154,-91.2 8,-91.2"/>
<text text-anchor="middle" x="58.884" y="-100" font-family="Times,serif" font-size="16.00" fill="#000000">Auth Module</text>
</g>
<g id="clust2" class="cluster">
<title>cluster_tweet</title>
<polygon fill="none" stroke="#0000ff" stroke-dasharray="5,2" points="162,-91.2 162,-411.2 456,-411.2 456,-91.2 162,-91.2"/>
<text text-anchor="middle" x="401.1264" y="-100" font-family="Times,serif" font-size="16.00" fill="#000000">Tweet Module</text>
</g>
<!-- user -->
<g id="node1" class="node">
<title>user</title>
<polygon fill="none" stroke="#000000" points="170,-456.5 170,-492.5 300,-492.5 300,-456.5 170,-456.5"/>
<text text-anchor="middle" x="234.7132" y="-470.3" font-family="Times,serif" font-size="14.00" fill="#000000">User</text>
</g>
<!-- auth_cntlr -->
<g id="node2" class="node">
<title>auth_cntlr</title>
<polygon fill="none" stroke="#000000" points="16,-366.7 16,-402.7 146,-402.7 146,-366.7 16,-366.7"/>
<text text-anchor="middle" x="80.5207" y="-380.5" font-family="Times,serif" font-size="14.00" fill="#000000">Auth Controller</text>
</g>
<!-- user&#45;&gt;auth_cntlr -->
<g id="edge1" class="edge">
<title>user&#45;&gt;auth_cntlr</title>
<path fill="none" stroke="#000000" d="M203.8358,-456.3276C179.9354,-442.3909 146.7718,-423.0526 120.927,-407.9821"/>
<polygon fill="#000000" stroke="#000000" points="122.5195,-404.8592 112.1179,-402.8453 118.9934,-410.9062 122.5195,-404.8592"/>
<text text-anchor="middle" x="189.1122" y="-425.4" font-family="Times,serif" font-size="14.00" fill="#000000">REST</text>
</g>
<!-- tweet_cntlr -->
<g id="node3" class="node">
<title>tweet_cntlr</title>
<polygon fill="none" stroke="#000000" points="170,-366.7 170,-402.7 300,-402.7 300,-366.7 170,-366.7"/>
<text text-anchor="middle" x="234.5116" y="-380.5" font-family="Times,serif" font-size="14.00" fill="#000000">Tweet Controller</text>
</g>
<!-- user&#45;&gt;tweet_cntlr -->
<g id="edge2" class="edge">
<title>user&#45;&gt;tweet_cntlr</title>
<path fill="none" stroke="#000000" d="M235,-456.3276C235,-443.9124 235,-427.2106 235,-413.0579"/>
<polygon fill="#000000" stroke="#000000" points="238.5001,-412.8453 235,-402.8453 231.5001,-412.8454 238.5001,-412.8453"/>
<text text-anchor="middle" x="252.1122" y="-425.4" font-family="Times,serif" font-size="14.00" fill="#000000">REST</text>
</g>
<!-- tweet_resolv -->
<g id="node4" class="node">
<title>tweet_resolv</title>
<polygon fill="none" stroke="#000000" points="318,-366.7 318,-402.7 448,-402.7 448,-366.7 318,-366.7"/>
<text text-anchor="middle" x="382.6203" y="-380.5" font-family="Times,serif" font-size="14.00" fill="#000000">Tweet Resolver</text>
</g>
<!-- user&#45;&gt;tweet_resolv -->
<g id="edge3" class="edge">
<title>user&#45;&gt;tweet_resolv</title>
<path fill="none" stroke="#000000" d="M264.95,-456.3276C287.8189,-442.4518 319.5126,-423.2214 344.3028,-408.1798"/>
<polygon fill="#000000" stroke="#000000" points="346.3608,-411.025 353.0945,-402.8453 342.7296,-405.0405 346.3608,-411.025"/>
<text text-anchor="middle" x="348.8205" y="-425.4" font-family="Times,serif" font-size="14.00" fill="#000000">GraphQL</text>
</g>
<!-- auth_svc -->
<g id="node5" class="node">
<title>auth_svc</title>
<polygon fill="none" stroke="#000000" points="16,-238.9 16,-274.9 146,-274.9 146,-238.9 16,-238.9"/>
<text text-anchor="middle" x="80.7374" y="-252.7" font-family="Times,serif" font-size="14.00" fill="#000000">Auth Service</text>
</g>
<!-- auth_cntlr&#45;&gt;auth_svc -->
<g id="edge4" class="edge">
<title>auth_cntlr&#45;&gt;auth_svc</title>
<path fill="none" stroke="#000000" d="M81,-366.6604C81,-345.5631 81,-310.3692 81,-285.5296"/>
<polygon fill="#000000" stroke="#000000" points="84.5001,-285.2616 81,-275.2616 77.5001,-285.2617 84.5001,-285.2616"/>
<text text-anchor="middle" x="113.8538" y="-316.6" font-family="Times,serif" font-size="14.00" fill="#000000">Auth DTOs</text>
</g>
<!-- tweet_svc -->
<g id="node7" class="node">
<title>tweet_svc</title>
<polygon fill="none" stroke="#000000" points="170,-238.9 170,-274.9 300,-274.9 300,-238.9 170,-238.9"/>
<text text-anchor="middle" x="234.7283" y="-252.7" font-family="Times,serif" font-size="14.00" fill="#000000">Tweet Service</text>
</g>
<!-- tweet_cntlr&#45;&gt;tweet_svc -->
<g id="edge6" class="edge">
<title>tweet_cntlr&#45;&gt;tweet_svc</title>
<path fill="none" stroke="#000000" d="M235,-366.6604C235,-345.5631 235,-310.3692 235,-285.5296"/>
<polygon fill="#000000" stroke="#000000" points="238.5001,-285.2616 235,-275.2616 231.5001,-285.2617 238.5001,-285.2616"/>
<text text-anchor="middle" x="271.3447" y="-316.6" font-family="Times,serif" font-size="14.00" fill="#000000">Tweet DTOs</text>
</g>
<!-- tweet_resolv&#45;&gt;tweet_svc -->
<g id="edge7" class="edge">
<title>tweet_resolv&#45;&gt;tweet_svc</title>
<path fill="none" stroke="#000000" d="M366.8597,-366.6203C352.9556,-351.4586 332.0207,-329.5911 312,-312.4 299.1804,-301.3923 284.277,-290.2986 271.0157,-280.9538"/>
<polygon fill="#000000" stroke="#000000" points="272.7847,-277.9208 262.5767,-275.0839 268.7875,-283.6674 272.7847,-277.9208"/>
<text text-anchor="middle" x="366.3447" y="-316.6" font-family="Times,serif" font-size="14.00" fill="#000000">Tweet DTOs</text>
</g>
<!-- auth_repo -->
<g id="node6" class="node">
<title>auth_repo</title>
<polygon fill="none" stroke="#000000" points="16,-126.9 16,-162.9 146,-162.9 146,-126.9 16,-126.9"/>
<text text-anchor="middle" x="80.9674" y="-140.7" font-family="Times,serif" font-size="14.00" fill="#000000">Auth Repository</text>
</g>
<!-- auth_svc&#45;&gt;auth_repo -->
<g id="edge5" class="edge">
<title>auth_svc&#45;&gt;auth_repo</title>
<path fill="none" stroke="#000000" d="M81,-238.4055C81,-220.6282 81,-193.5184 81,-173.0587"/>
<polygon fill="#000000" stroke="#000000" points="84.5001,-173.0503 81,-163.0504 77.5001,-173.0504 84.5001,-173.0503"/>
</g>
<!-- db -->
<g id="node9" class="node">
<title>db</title>
<polygon fill="none" stroke="#000000" points="92,-27.7 92,-63.7 222,-63.7 222,-27.7 92,-27.7"/>
<text text-anchor="middle" x="156.5484" y="-41.5" font-family="Times,serif" font-size="14.00" fill="#000000">PostgresQL</text>
</g>
<!-- auth_repo&#45;&gt;db -->
<g id="edge9" class="edge">
<title>auth_repo&#45;&gt;db</title>
<path fill="none" stroke="#000000" d="M94.9396,-126.7052C106.724,-111.3233 123.753,-89.0961 136.9931,-71.8143"/>
<polygon fill="#000000" stroke="#000000" points="139.8455,-73.8462 143.1488,-63.7795 134.2888,-69.589 139.8455,-73.8462"/>
</g>
<!-- tweet_repo -->
<g id="node8" class="node">
<title>tweet_repo</title>
<polygon fill="none" stroke="#000000" points="170,-126.9 170,-162.9 300,-162.9 300,-126.9 170,-126.9"/>
<text text-anchor="middle" x="234.9583" y="-140.7" font-family="Times,serif" font-size="14.00" fill="#000000">Tweet Repository</text>
</g>
<!-- tweet_svc&#45;&gt;tweet_repo -->
<g id="edge8" class="edge">
<title>tweet_svc&#45;&gt;tweet_repo</title>
<path fill="none" stroke="#000000" d="M235,-238.4055C235,-220.6282 235,-193.5184 235,-173.0587"/>
<polygon fill="#000000" stroke="#000000" points="238.5001,-173.0503 235,-163.0504 231.5001,-173.0504 238.5001,-173.0503"/>
</g>
<!-- tweet_repo&#45;&gt;db -->
<g id="edge10" class="edge">
<title>tweet_repo&#45;&gt;db</title>
<path fill="none" stroke="#000000" d="M220.6936,-126.7052C208.599,-111.3233 191.1219,-89.0961 177.5334,-71.8143"/>
<polygon fill="#000000" stroke="#000000" points="180.1481,-69.4771 171.2157,-63.7795 174.6454,-73.8038 180.1481,-69.4771"/>
</g>
</g>
</svg>
